<svg width="128" height="128" viewBox="0 0 128 128" fill="none" xmlns="http://www.w3.org/2000/svg">
<path d="M33.0088 91.5024L15.3232 45.6514H22.5289L37.7086 84.3974L51.3496 45.6514H59.5373L42.1793 91.5024H33.0088Z" fill="white" stroke="white" stroke-width="2"/>
<path d="M107.867 21.7412L102.1 38.2412H112.345V46.2412H99.3037L89.5586 74.1201H112.345V82.1201H86.7617L81.6416 96.7686L81.4072 97.4395H71.3379L71.8174 96.1016L77.2041 81.0908C73.8697 79.8569 71.2038 77.5991 69.2617 74.7871C66.3685 70.5977 65.0956 65.2548 65.1367 60.1484C65.1779 55.0398 66.5373 49.7227 69.4326 45.5625C72.4051 41.2918 77.0367 38.2413 83.1289 38.2412H92.584L98.7461 21.0732L98.9844 20.4102H108.332L107.867 21.7412ZM83.1289 46.2412C80.0375 46.2413 77.7087 47.6764 75.999 50.1328C74.2126 52.6998 73.1678 56.3524 73.1367 60.2129C73.1057 64.0758 74.0921 67.7035 75.8447 70.2412C76.9021 71.7721 78.2354 72.9225 79.9072 73.5586L89.7129 46.2412H83.1289Z" fill="white"/>
</svg>
