<svg width="97" height="97" viewBox="0 0 97 97" fill="none" xmlns="http://www.w3.org/2000/svg">
<g clip-path="url(#clip0_3645_16)">
<path d="M17.6855 81.0771L0 35.2261H7.20561L22.3854 73.9721L36.0263 35.2261H44.214L26.8561 81.0771H17.6855Z" fill="white" stroke="white" stroke-width="2"/>
<path d="M92.5439 11.3159L86.7764 27.8159H97.0215V35.8159H83.9805L74.2353 63.6948H97.0215V71.6948H71.4385L66.3183 86.3433L66.084 87.0142H56.0146L56.4941 85.6763L61.8808 70.6655C58.5465 69.4317 55.8806 67.1738 53.9385 64.3618C51.0453 60.1724 49.7724 54.8295 49.8135 49.7231C49.8546 44.6145 51.214 39.2974 54.1094 35.1372C57.0818 30.8665 61.7134 27.816 67.8056 27.8159H77.2607L83.4228 10.6479L83.6611 9.98584H93.0088L92.5439 11.3159ZM67.8056 35.8159C64.7143 35.816 62.3855 37.2511 60.6758 39.7075C58.8894 42.2745 57.8446 45.9271 57.8135 49.7876C57.7824 53.6505 58.7689 57.2782 60.5215 59.8159C61.5789 61.3469 62.9122 62.4972 64.584 63.1333L74.3896 35.8159H67.8056Z" fill="white"/>
</g>
<defs>
<clipPath id="clip0_3645_16">
<rect width="97" height="97" fill="white"/>
</clipPath>
</defs>
</svg>
